# xmcd CD database file
#
# Track frame offsets:
#	150
#	10607
#	18210
#	27082
#	35840
#	47645
#	60297
#	70625
#	82737
#	93557
#	104665
#	114477
#	125295
#	135485
#	145662
#	157695
#
# Disc length: 2226 seconds
#
# Revision: 0
# Processed by: cddbd v1.4PL0 Copyright (c) Steve Scherf et al.
# Submitted via: Feurio! 1.63 - http://www.feurio.com
#
DISCID=b808b010
DTITLE=Johnny Cash - Hey good lookin´
DYEAR=1900
DGENRE=country
TTITLE0=Bonanza
TTITLE1=Hey good lookin´
TTITLE2=Life goes on
TTITLE3=Katy too
TTITLE4=Thanks a lot
TTITLE5=Give my love to Rose
TTITLE6=The ways of a woman in love
TTITLE7=You´re the nearest thing to heaven
TTITLE8=Cold cold heart
TTITLE9=I love you because
TTITLE10=Just about time
TTITLE11=I just thought you´d like to know
TTITLE12=Goodbye little darling
TTITLE13=I could never be ashamed of you
TTITLE14=Port of lonely hearts
TTITLE15=Oh, what a dream
EXTD=
EXTT0=
EXTT1=
EXTT2=
EXTT3=
EXTT4=
EXTT5=
EXTT6=
EXTT7=
EXTT8=
EXTT9=
EXTT10=
EXTT11=
EXTT12=
EXTT13=
EXTT14=
EXTT15=
PLAYORDER=
